mtllib Briefcase01.mtl
o Briefcase01.obj
v -0.128024 -0.040182 0.287793
v -0.128024 -0.040182 -0.287793
v -0.128024 -0.013378 0.287793
v -0.128024 -0.013378 -0.287793
v 0.117440 -0.040182 -0.287793
v 0.117440 -0.013378 0.287793
v 0.117440 -0.040182 0.287793
v 0.117440 -0.013378 -0.287793
v 0.107089 -0.047637 0.277443
v -0.117674 -0.047637 0.277443
v -0.117674 -0.047637 -0.277443
v 0.107089 -0.047637 -0.277443
v 0.117440 -0.045211 0.287793
v -0.128024 -0.045211 0.287793
v 0.107089 -0.045211 0.277443
v -0.117674 -0.045211 0.277443
v -0.128024 -0.045211 -0.287793
v -0.117674 -0.045211 -0.277443
v 0.117440 -0.045211 -0.287793
v 0.107089 -0.045211 -0.277443
v -0.128024 0.060075 -0.287793
v -0.128024 0.060075 0.287793
v -0.128024 -0.010668 -0.287793
v -0.128024 -0.010668 0.287793
v 0.117440 0.060075 0.287793
v 0.117440 -0.010668 -0.287793
v 0.117440 0.060075 -0.287793
v 0.117440 -0.010668 0.287793
v 0.107089 0.067531 -0.277443
v -0.117674 0.067531 -0.277443
v -0.117674 0.067531 0.277443
v 0.107089 0.067531 0.277443
v 0.117440 0.065104 -0.287793
v -0.128024 0.065104 -0.287793
v 0.107089 0.065104 -0.277443
v -0.117674 0.065104 -0.277443
v -0.128024 0.065104 0.287793
v -0.117674 0.065104 0.277443
v 0.117440 0.065104 0.287793
v 0.107089 0.065104 0.277443
v -0.188180 -0.040182 -0.278651
v -0.179038 -0.040182 -0.287793
v -0.179038 -0.040182 0.287793
v -0.188180 -0.040182 0.278651
v 0.179038 -0.040182 -0.287793
v 0.188180 -0.040182 -0.278651
v 0.188180 -0.040182 0.278651
v 0.179038 -0.040182 0.287793
v -0.179038 -0.013378 -0.287793
v -0.188180 -0.013378 -0.278651
v -0.188180 -0.013378 0.278651
v -0.179038 -0.013378 0.287793
v 0.188180 -0.013378 -0.278651
v 0.179038 -0.013378 -0.287793
v 0.179038 -0.013378 0.287793
v 0.188180 -0.013378 0.278651
v -0.188180 0.060075 0.278651
v -0.179038 0.060075 0.287793
v -0.179038 0.060075 -0.287793
v -0.188180 0.060075 -0.278651
v 0.179038 0.060075 0.287793
v 0.188180 0.060075 0.278651
v 0.188180 0.060075 -0.278651
v 0.179038 0.060075 -0.287793
v -0.179038 -0.010668 0.287793
v -0.188180 -0.010668 0.278651
v -0.188180 -0.010668 -0.278651
v -0.179038 -0.010668 -0.287793
v 0.188180 -0.010668 0.278651
v 0.179038 -0.010668 0.287793
v 0.179038 -0.010668 -0.287793
v 0.188180 -0.010668 -0.278651
v 0.188246 -0.009470 -0.124081
v 0.188246 -0.009470 -0.141349
v 0.188246 0.009977 -0.141349
v 0.188246 0.009977 -0.124081
v 0.188246 -0.009470 0.139326
v 0.188246 -0.009470 0.123069
v 0.188246 0.009977 0.123069
v 0.188246 0.009977 0.139326
v 0.192340 -0.009470 -0.124081
v 0.192340 -0.009470 -0.141349
v 0.192340 0.009977 -0.141349
v 0.192340 0.009977 -0.124081
v 0.192340 -0.009470 0.139326
v 0.192340 -0.009470 0.123069
v 0.192340 0.009977 0.123069
v 0.192340 0.009977 0.139326
v 0.188246 -0.009470 -0.100216
v 0.188246 -0.009470 -0.117484
v 0.188246 0.009977 -0.117484
v 0.188246 0.009977 -0.100216
v 0.188246 -0.009470 0.163191
v 0.188246 -0.009470 0.146934
v 0.188246 0.009977 0.146934
v 0.188246 0.009977 0.163191
v 0.192340 -0.009470 -0.100216
v 0.192340 -0.009470 -0.117484
v 0.192340 0.009977 -0.117484
v 0.192340 0.009977 -0.100216
v 0.192340 -0.009470 0.163191
v 0.192340 -0.009470 0.146934
v 0.192340 0.009977 0.146934
v 0.192340 0.009977 0.163191
v 0.188246 -0.009470 -0.147832
v 0.188246 -0.009470 -0.165100
v 0.188246 0.009977 -0.165100
v 0.188246 0.009977 -0.147832
v 0.188246 -0.009470 0.115574
v 0.188246 -0.009470 0.099318
v 0.188246 0.009977 0.099318
v 0.188246 0.009977 0.115574
v 0.192340 -0.009470 -0.147832
v 0.192340 -0.009470 -0.165100
v 0.192340 0.009977 -0.165100
v 0.192340 0.009977 -0.147832
v 0.192340 -0.009470 0.115574
v 0.192340 -0.009470 0.099318
v 0.192340 0.009977 0.099318
v 0.192340 0.009977 0.115574
v 0.192340 -0.009470 -0.066027
v 0.192340 -0.009470 -0.077348
v 0.192340 0.009977 -0.077348
v 0.192340 0.009977 -0.066027
v 0.192340 -0.009470 0.075438
v 0.192340 -0.009470 0.064781
v 0.192340 0.009977 0.064781
v 0.192340 0.009977 0.075438
v 0.188246 -0.009470 -0.066027
v 0.188246 -0.009470 -0.077348
v 0.188246 0.009977 -0.077348
v 0.188246 0.009977 -0.066027
v 0.188246 -0.009470 0.075438
v 0.188246 -0.009470 0.064781
v 0.188246 0.009977 0.064781
v 0.188246 0.009977 0.075438
v 0.202311 -0.002091 -0.064460
v 0.202311 -0.002091 -0.075508
v 0.202311 0.009798 -0.075508
v 0.202311 0.009798 -0.064460
v 0.202311 -0.002091 0.073598
v 0.202311 -0.002091 0.063198
v 0.202311 0.009798 0.063198
v 0.202311 0.009798 0.073598
v 0.227547 -0.002091 -0.064460
v 0.227547 -0.002091 -0.075508
v 0.227547 0.009798 -0.075508
v 0.227547 0.009798 -0.064460
v 0.227547 -0.002091 0.073598
v 0.227547 -0.002091 0.063198
v 0.227547 0.009798 0.063198
v 0.227547 0.009798 0.073598
v 0.244796 -0.002091 -0.064460
v 0.236053 -0.002091 -0.075508
v 0.236053 0.009798 -0.075508
v 0.244796 0.009798 -0.064460
v 0.236053 -0.002091 0.073598
v 0.244796 -0.002091 0.063198
v 0.244796 0.009798 0.063198
v 0.236053 0.009798 0.073598
vn -0.301511 -0.301511 0.904534
vn -0.301511 -0.301511 -0.904534
vn 0.000000 0.707107 0.707107
vn 0.000000 0.707107 -0.707107
vn 0.301511 -0.301511 -0.904534
vn 0.000000 0.707107 0.707107
vn 0.301511 -0.301511 0.904534
vn 0.000000 0.707107 -0.707107
vn 0.577350 -0.577350 0.577350
vn -0.577350 -0.577350 0.577350
vn -0.577350 -0.577350 -0.577350
vn 0.577350 -0.577350 -0.577350
vn 0.408248 -0.816497 0.408248
vn -0.408248 -0.816497 0.408248
vn 0.408248 -0.816497 0.408248
vn -0.408248 -0.816497 0.408248
vn -0.408248 -0.816497 -0.408248
vn -0.408248 -0.816497 -0.408248
vn 0.408248 -0.816497 -0.408248
vn 0.408248 -0.816497 -0.408248
vn -0.301511 0.301511 -0.904534
vn -0.301511 0.301511 0.904534
vn 0.000000 -0.707107 -0.707107
vn 0.000000 -0.707107 0.707107
vn 0.301511 0.301511 0.904534
vn 0.000000 -0.707107 -0.707107
vn 0.301511 0.301511 -0.904534
vn 0.000000 -0.707107 0.707107
vn 0.577350 0.577350 -0.577350
vn -0.577350 0.577350 -0.577350
vn -0.577350 0.577350 0.577350
vn 0.577350 0.577350 0.577350
vn 0.408248 0.816497 -0.408248
vn -0.408248 0.816497 -0.408248
vn 0.408248 0.816497 -0.408248
vn -0.408248 0.816497 -0.408248
vn -0.408248 0.816497 0.408248
vn -0.408248 0.816497 0.408248
vn 0.408248 0.816497 0.408248
vn 0.408248 0.816497 0.408248
vn -0.812520 -0.475963 -0.336556
vn -0.336557 -0.475963 -0.812520
vn -0.336557 -0.475963 0.812520
vn -0.812520 -0.475963 0.336556
vn 0.336557 -0.475963 -0.812520
vn 0.812520 -0.475963 -0.336556
vn 0.812520 -0.475963 0.336556
vn 0.336557 -0.475963 0.812520
vn -0.336557 0.475963 -0.812520
vn -0.812520 0.475963 -0.336556
vn -0.812520 0.475963 0.336556
vn -0.336557 0.475963 0.812520
vn 0.812520 0.475963 -0.336556
vn 0.336557 0.475963 -0.812520
vn 0.336557 0.475963 0.812520
vn 0.812520 0.475963 0.336556
vn -0.812520 0.475963 0.336556
vn -0.336557 0.475963 0.812520
vn -0.336557 0.475963 -0.812520
vn -0.812520 0.475963 -0.336556
vn 0.336557 0.475963 0.812520
vn 0.812520 0.475963 0.336556
vn 0.812520 0.475963 -0.336556
vn 0.336557 0.475963 -0.812520
vn -0.336557 -0.475963 0.812520
vn -0.812520 -0.475963 0.336556
vn -0.812520 -0.475963 -0.336556
vn -0.336557 -0.475963 -0.812520
vn 0.812520 -0.475963 0.336556
vn 0.336557 -0.475963 0.812520
vn 0.336557 -0.475963 -0.812520
vn 0.812520 -0.475963 -0.336556
vn 0.000000 -0.707107 0.707107
vn 0.000000 -0.707107 -0.707107
vn 0.000000 0.707107 -0.707107
vn 0.000000 0.707107 0.707107
vn 0.000000 -0.707107 0.707107
vn 0.000000 -0.707107 -0.707107
vn 0.000000 0.707107 -0.707107
vn 0.000000 0.707107 0.707107
vn 0.577350 -0.577350 0.577350
vn 0.577350 -0.577350 -0.577350
vn 0.577350 0.577350 -0.577350
vn 0.577350 0.577350 0.577350
vn 0.577350 -0.577350 0.577350
vn 0.577350 -0.577350 -0.577350
vn 0.577350 0.577350 -0.577350
vn 0.577350 0.577350 0.577350
vn 0.000000 -0.707107 0.707107
vn 0.000000 -0.707107 -0.707107
vn 0.000000 0.707107 -0.707107
vn 0.000000 0.707107 0.707107
vn 0.000000 -0.707107 0.707107
vn 0.000000 -0.707107 -0.707107
vn 0.000000 0.707107 -0.707107
vn 0.000000 0.707107 0.707107
vn 0.577350 -0.577350 0.577350
vn 0.577350 -0.577350 -0.577350
vn 0.577350 0.577350 -0.577350
vn 0.577350 0.577350 0.577350
vn 0.577350 -0.577350 0.577350
vn 0.577350 -0.577350 -0.577350
vn 0.577350 0.577350 -0.577350
vn 0.577350 0.577350 0.577350
vn 0.000000 -0.707107 0.707107
vn 0.000000 -0.707107 -0.707107
vn 0.000000 0.707107 -0.707107
vn 0.000000 0.707107 0.707107
vn 0.000000 -0.707107 0.707107
vn 0.000000 -0.707107 -0.707107
vn 0.000000 0.707107 -0.707107
vn 0.000000 0.707107 0.707107
vn 0.577350 -0.577350 0.577350
vn 0.577350 -0.577350 -0.577350
vn 0.577350 0.577350 -0.577350
vn 0.577350 0.577350 0.577350
vn 0.577350 -0.577350 0.577350
vn 0.577350 -0.577350 -0.577350
vn 0.577350 0.577350 -0.577350
vn 0.577350 0.577350 0.577350
vn 0.161621 -0.663157 0.730822
vn 0.278146 -0.646273 -0.710610
vn 0.070625 0.708247 -0.702423
vn -0.048635 0.708386 0.704148
vn 0.278146 -0.646273 0.710610
vn 0.161077 -0.663262 -0.730847
vn -0.049185 0.708410 -0.704085
vn 0.070625 0.708247 0.702423
vn 0.000000 -0.707107 0.707107
vn 0.000000 -0.707107 -0.707107
vn 0.000000 0.707107 -0.707107
vn 0.000000 0.707107 0.707107
vn 0.000000 -0.707107 0.707107
vn 0.000000 -0.707107 -0.707107
vn 0.000000 0.707107 -0.707107
vn 0.000000 0.707107 0.707107
vn 0.161621 -0.663157 0.730822
vn 0.278146 -0.646273 -0.710610
vn 0.070625 0.708247 -0.702423
vn -0.048635 0.708386 0.704148
vn 0.278146 -0.646273 0.710610
vn 0.161077 -0.663262 -0.730847
vn -0.049185 0.708410 -0.704085
vn 0.070625 0.708247 0.702423
vn -0.301511 -0.904534 0.301511
vn 0.000000 -0.707107 -0.707107
vn 0.000000 0.707107 -0.707107
vn -0.301511 0.904534 0.301511
vn 0.000000 -0.707107 0.707107
vn -0.301511 -0.904534 -0.301511
vn -0.301511 0.904534 -0.301511
vn 0.000000 0.707107 0.707107
vn 0.648536 -0.726993 -0.225570
vn 0.380772 -0.485579 -0.786909
vn 0.380772 0.485579 -0.786909
vn 0.648536 0.726993 -0.225570
vn 0.369693 -0.482974 0.793765
vn 0.643328 -0.728797 0.234488
vn 0.643328 0.728797 0.234488
vn 0.369693 0.482974 0.793765
vt 0.132345 0.696739
vt 0.124542 0.704542
vt 0.071968 0.704542
vt 0.071968 0.213278
vt 0.124542 0.213278
vt 0.132345 0.221080
vt 0.510676 0.221080
vt 0.518478 0.213278
vt 0.562019 0.213278
vt 0.562019 0.704542
vt 0.518478 0.704542
vt 0.510676 0.696739
vt 0.833821 0.696739
vt 0.833821 0.221080
vt 0.856698 0.221080
vt 0.856698 0.696739
vt 0.262214 0.898474
vt 0.218765 0.898474
vt 0.218765 0.879567
vt 0.262214 0.879567
vt 0.402743 0.970456
vt 0.009637 0.970456
vt 0.009637 0.951549
vt 0.402743 0.951549
vt 0.262214 0.775003
vt 0.226230 0.775003
vt 0.226230 0.756097
vt 0.262214 0.756097
vt 0.070047 0.704542
vt 0.026506 0.704542
vt 0.018704 0.696739
vt 0.018704 0.221080
vt 0.026506 0.213278
vt 0.070047 0.213278
vt 0.771523 0.213278
vt 0.771523 0.704542
vt 0.045621 0.898474
vt 0.009637 0.898474
vt 0.009637 0.879567
vt 0.045621 0.879567
vt 0.053086 0.775003
vt 0.053086 0.756097
vt 0.824097 0.213278
vt 0.831900 0.221080
vt 0.831900 0.696739
vt 0.824097 0.704542
vt 0.009637 0.775003
vt 0.009637 0.756097
vt 0.995050 0.084252
vt 0.995050 0.023992
vt 0.977246 0.026533
vt 0.977246 0.081711
vt 0.004950 0.023992
vt 0.022754 0.026533
vt 0.004950 0.084252
vt 0.022754 0.081711
vt 0.995050 0.084252
vt 0.995050 0.023992
vt 0.977246 0.026533
vt 0.977246 0.081711
vt 0.004950 0.023992
vt 0.022754 0.026533
vt 0.004950 0.084252
vt 0.022754 0.081711
vt 0.981296 0.696739
vt 0.973494 0.704542
vt 0.920920 0.704542
vt 0.920920 0.213278
vt 0.973494 0.213278
vt 0.981296 0.221080
vt 0.187530 0.221080
vt 0.195333 0.213278
vt 0.238874 0.213278
vt 0.238874 0.704542
vt 0.195333 0.704542
vt 0.187530 0.696739
vt 0.918999 0.221080
vt 0.918999 0.696739
vt 0.858619 0.696739
vt 0.858619 0.221080
vt 0.016085 0.828079
vt 0.059535 0.828079
vt 0.059535 0.877979
vt 0.016085 0.877979
vt 0.016085 0.900061
vt 0.409192 0.900061
vt 0.409192 0.949962
vt 0.016085 0.949962
vt 0.009637 0.776591
vt 0.045621 0.776591
vt 0.045621 0.826491
vt 0.009637 0.826491
vt 0.185609 0.704542
vt 0.142069 0.704542
vt 0.134266 0.696739
vt 0.134266 0.221080
vt 0.142069 0.213278
vt 0.185609 0.213278
vt 0.448378 0.213278
vt 0.448378 0.704542
vt 0.232679 0.828079
vt 0.268663 0.828079
vt 0.268663 0.877979
vt 0.232679 0.877979
vt 0.218765 0.776591
vt 0.218765 0.826491
vt 0.500952 0.213278
vt 0.508754 0.221080
vt 0.508754 0.696739
vt 0.500952 0.704542
vt 0.262214 0.776591
vt 0.262214 0.826491
vt 0.004950 0.077523
vt 0.004950 0.022118
vt 0.022754 0.024454
vt 0.022754 0.075187
vt 0.995050 0.022118
vt 0.977246 0.024454
vt 0.995050 0.077523
vt 0.977246 0.075187
vt 0.004950 0.077523
vt 0.004950 0.022118
vt 0.022754 0.024454
vt 0.022754 0.075187
vt 0.995050 0.022118
vt 0.977246 0.024454
vt 0.995050 0.077523
vt 0.977246 0.075187
vt 0.833821 0.213278
vt 0.856698 0.213278
vt 0.856698 0.704542
vt 0.833821 0.704542
vt 0.268663 0.879567
vt 0.268663 0.898474
vt 0.409192 0.951549
vt 0.409192 0.970456
vt 0.918999 0.704542
vt 0.858619 0.704542
vt 0.858619 0.213278
vt 0.918999 0.213278
vt 0.009637 0.877979
vt 0.009637 0.828079
vt 0.009637 0.949962
vt 0.009637 0.900061
vt 0.312830 0.019504
vt 0.300574 0.103905
vt 0.687170 0.104344
vt 0.699426 0.019943
vt 0.699426 0.019943
vt 0.687170 0.104344
vt 0.300574 0.103905
vt 0.312830 0.019504
vt 0.286561 0.032785
vt 0.256857 0.032785
vt 0.256857 0.032785
vt 0.286561 0.032785
vt 0.739663 0.032785
vt 0.711698 0.032785
vt 0.711698 0.032785
vt 0.739663 0.032785
vt 0.286561 0.025743
vt 0.256857 0.025743
vt 0.256857 0.025743
vt 0.286561 0.025743
vt 0.739663 0.025743
vt 0.711698 0.025743
vt 0.711698 0.025743
vt 0.739663 0.025743
vt 0.327613 0.032785
vt 0.297909 0.032785
vt 0.297909 0.032785
vt 0.327613 0.032785
vt 0.780714 0.032785
vt 0.752750 0.032785
vt 0.752750 0.032785
vt 0.780714 0.032785
vt 0.327613 0.025743
vt 0.297909 0.025743
vt 0.297909 0.025743
vt 0.327613 0.025743
vt 0.780714 0.025743
vt 0.752750 0.025743
vt 0.752750 0.025743
vt 0.780714 0.025743
vt 0.245705 0.032785
vt 0.216002 0.032785
vt 0.216002 0.032785
vt 0.245705 0.032785
vt 0.698806 0.032785
vt 0.670843 0.032785
vt 0.670843 0.032785
vt 0.698806 0.032785
vt 0.245705 0.025743
vt 0.216002 0.025743
vt 0.216002 0.025743
vt 0.245705 0.025743
vt 0.698806 0.025743
vt 0.670843 0.025743
vt 0.670843 0.025743
vt 0.698806 0.025743
vt 0.389119 0.123018
vt 0.370114 0.107979
vt 0.370114 0.107979
vt 0.389119 0.123018
vt 0.626600 0.107979
vt 0.608711 0.123018
vt 0.608711 0.123018
vt 0.626600 0.107979
vt 0.386423 0.025743
vt 0.366949 0.025743
vt 0.366949 0.032785
vt 0.386423 0.032785
vt 0.366949 0.025743
vt 0.366949 0.032785
vt 0.386423 0.025743
vt 0.386423 0.032785
vt 0.629765 0.025743
vt 0.611434 0.025743
vt 0.611434 0.032785
vt 0.629765 0.032785
vt 0.611434 0.025743
vt 0.611434 0.032785
vt 0.629765 0.025743
vt 0.629765 0.032785
vt 0.370114 0.049937
vt 0.389119 0.049937
vt 0.370114 0.049937
vt 0.389119 0.049937
vt 0.608711 0.049937
vt 0.626600 0.049937
vt 0.608711 0.049937
vt 0.626600 0.049937
vt 0.370114 0.093347
vt 0.389119 0.093347
vt 0.370114 0.093347
vt 0.389119 0.093347
vt 0.608711 0.093347
vt 0.626600 0.093347
vt 0.608711 0.093347
vt 0.626600 0.093347
g Briefcase01
usemtl Default
f 47/1/47 48/2/48 7/3/7 5/4/5 45/5/45 46/6/46 
f 51/7/51 52/8/52 3/9/3 4/10/4 49/11/49 50/12/50 
f 51/13/51 50/14/50 41/15/41 44/16/44 
f 55/17/55 6/18/6 7/19/7 48/20/48 
f 53/21/53 56/22/56 47/23/47 46/24/46 
f 49/25/49 4/26/4 2/27/2 42/28/42 
f 1/29/1 43/30/43 44/31/44 41/32/41 42/33/42 2/34/2 
f 3/9/3 6/35/6 8/36/8 4/10/4 
f 3/37/3 52/38/52 43/39/43 1/40/1 
f 4/26/4 8/41/8 5/42/5 2/27/2 
f 6/18/6 3/37/3 1/40/1 7/19/7 
f 6/35/6 55/43/55 56/44/56 53/45/53 54/46/54 8/36/8 
f 8/41/8 54/47/54 45/48/45 5/42/5 
f 13/49/13 14/50/14 16/51/16 15/52/15 
f 14/50/14 17/53/17 18/54/18 16/51/16 
f 17/53/17 19/55/19 20/56/20 18/54/18 
f 19/55/19 13/49/13 15/52/15 20/56/20 
f 7/57/7 1/58/1 14/50/14 13/49/13 
f 10/59/10 9/60/9 15/52/15 16/51/16 
f 1/58/1 2/61/2 17/53/17 14/50/14 
f 11/62/11 10/59/10 16/51/16 18/54/18 
f 2/61/2 5/63/5 19/55/19 17/53/17 
f 12/64/12 11/62/11 18/54/18 20/56/20 
f 5/63/5 7/57/7 13/49/13 19/55/19 
f 9/60/9 12/64/12 20/56/20 15/52/15 
f 63/65/63 64/66/64 27/67/27 25/68/25 61/69/61 62/70/62 
f 67/71/67 68/72/68 23/73/23 24/74/24 65/75/65 66/76/66 
f 67/77/67 66/78/66 57/79/57 60/80/60 
f 71/81/71 26/82/26 27/83/27 64/84/64 
f 69/85/69 72/86/72 63/87/63 62/88/62 
f 65/89/65 24/90/24 22/91/22 58/92/58 
f 21/93/21 59/94/59 60/95/60 57/96/57 58/97/58 22/98/22 
f 23/73/23 26/99/26 28/100/28 24/74/24 
f 23/101/23 68/102/68 59/103/59 21/104/21 
f 24/90/24 28/105/28 25/106/25 22/91/22 
f 26/82/26 23/101/23 21/104/21 27/83/27 
f 26/99/26 71/107/71 72/108/72 69/109/69 70/110/70 28/100/28 
f 28/105/28 70/111/70 61/112/61 25/106/25 
f 33/113/33 34/114/34 36/115/36 35/116/35 
f 34/114/34 37/117/37 38/118/38 36/115/36 
f 37/117/37 39/119/39 40/120/40 38/118/38 
f 39/119/39 33/113/33 35/116/35 40/120/40 
f 27/121/27 21/122/21 34/114/34 33/113/33 
f 30/123/30 29/124/29 35/116/35 36/115/36 
f 21/122/21 22/125/22 37/117/37 34/114/34 
f 31/126/31 30/123/30 36/115/36 38/118/38 
f 22/125/22 25/127/25 39/119/39 37/117/37 
f 32/128/32 31/126/31 38/118/38 40/120/40 
f 25/127/25 27/121/27 33/113/33 39/119/39 
f 29/124/29 32/128/32 40/120/40 35/116/35 
f 49/129/49 42/130/42 41/15/41 50/14/50 
f 43/131/43 52/132/52 51/13/51 44/16/44 
f 47/133/47 56/134/56 55/17/55 48/20/48 
f 45/135/45 54/136/54 53/21/53 46/24/46 
f 65/137/65 58/138/58 57/79/57 66/78/66 
f 59/139/59 68/140/68 67/77/67 60/80/60 
f 63/141/63 72/142/72 71/81/71 64/84/64 
f 61/143/61 70/144/70 69/85/69 62/88/62 
f 10/145/10 11/146/11 12/147/12 9/148/9 
f 32/149/32 29/150/29 30/151/30 31/152/31 
f 81/153/81 82/154/82 83/155/83 84/156/84 
f 85/157/85 86/158/86 87/159/87 88/160/88 
f 73/161/73 74/162/74 82/154/82 81/153/81 
f 74/162/74 75/163/75 83/155/83 82/154/82 
f 75/163/75 76/164/76 84/156/84 83/155/83 
f 76/164/76 73/161/73 81/153/81 84/156/84 
f 77/165/77 78/166/78 86/158/86 85/157/85 
f 78/166/78 79/167/79 87/159/87 86/158/86 
f 79/167/79 80/168/80 88/160/88 87/159/87 
f 80/168/80 77/165/77 85/157/85 88/160/88 
f 97/169/97 98/170/98 99/171/99 100/172/100 
f 101/173/101 102/174/102 103/175/103 104/176/104 
f 89/177/89 90/178/90 98/170/98 97/169/97 
f 90/178/90 91/179/91 99/171/99 98/170/98 
f 91/179/91 92/180/92 100/172/100 99/171/99 
f 92/180/92 89/177/89 97/169/97 100/172/100 
f 93/181/93 94/182/94 102/174/102 101/173/101 
f 94/182/94 95/183/95 103/175/103 102/174/102 
f 95/183/95 96/184/96 104/176/104 103/175/103 
f 96/184/96 93/181/93 101/173/101 104/176/104 
f 113/185/113 114/186/114 115/187/115 116/188/116 
f 117/189/117 118/190/118 119/191/119 120/192/120 
f 105/193/105 106/194/106 114/186/114 113/185/113 
f 106/194/106 107/195/107 115/187/115 114/186/114 
f 107/195/107 108/196/108 116/188/116 115/187/115 
f 108/196/108 105/193/105 113/185/113 116/188/116 
f 109/197/109 110/198/110 118/190/118 117/189/117 
f 110/198/110 111/199/111 119/191/119 118/190/118 
f 111/199/111 112/200/112 120/192/120 119/191/119 
f 112/200/112 109/197/109 117/189/117 120/192/120 
f 153/201/153 154/202/154 155/203/155 156/204/156 
f 157/205/157 158/206/158 159/207/159 160/208/160 
f 129/209/129 130/210/130 122/211/122 121/212/121 
f 130/210/130 131/213/131 123/214/123 122/211/122 
f 131/213/131 132/215/132 124/216/124 123/214/123 
f 132/215/132 129/209/129 121/212/121 124/216/124 
f 133/217/133 134/218/134 126/219/126 125/220/125 
f 134/218/134 135/221/135 127/222/127 126/219/126 
f 135/221/135 136/223/136 128/224/128 127/222/127 
f 136/223/136 133/217/133 125/220/125 128/224/128 
f 121/212/121 122/211/122 138/225/138 137/226/137 
f 122/211/122 123/214/123 139/227/139 138/225/138 
f 123/214/123 124/216/124 140/228/140 139/227/139 
f 124/216/124 121/212/121 137/226/137 140/228/140 
f 125/220/125 126/219/126 142/229/142 141/230/141 
f 126/219/126 127/222/127 143/231/143 142/229/142 
f 127/222/127 128/224/128 144/232/144 143/231/143 
f 128/224/128 125/220/125 141/230/141 144/232/144 
f 137/226/137 138/225/138 146/233/146 145/234/145 
f 138/225/138 139/227/139 147/235/147 146/233/146 
f 139/227/139 140/228/140 148/236/148 147/235/147 
f 140/228/140 137/226/137 145/234/145 148/236/148 
f 141/230/141 142/229/142 150/237/150 149/238/149 
f 142/229/142 143/231/143 151/239/151 150/237/150 
f 143/231/143 144/232/144 152/240/152 151/239/151 
f 144/232/144 141/230/141 149/238/149 152/240/152 
f 145/234/145 146/233/146 154/202/154 153/201/153 
f 146/233/146 147/235/147 155/203/155 154/202/154 
f 147/235/147 148/236/148 156/204/156 155/203/155 
f 149/238/149 150/237/150 158/206/158 157/205/157 
f 151/239/151 152/240/152 160/208/160 159/207/159 
f 152/240/152 149/238/149 157/205/157 160/208/160 
f 148/236/148 145/234/145 150/237/150 151/239/151 
f 148/236/148 151/239/151 159/207/159 156/204/156 
f 156/204/156 159/207/159 158/206/158 153/201/153 
f 153/201/153 158/206/158 150/237/150 145/234/145 
